<svg width="24" height="25" viewBox="0 0 24 25" fill="none" xmlns="http://www.w3.org/2000/svg">
<path d="M7.2 4.16571V5.83118H22.4V9.12804L20.625 14.9913H6.6966L4.6966 0H0V1.66547H3.3034L5.3034 16.6568H21.7984L24 9.38421V4.16571H7.2Z" fill="#1D1D1D"/>
<path d="M8.0492 18.3381C7.2008 18.3391 6.38743 18.6904 5.78753 19.3148C5.18762 19.9393 4.85017 20.7859 4.8492 21.6691C4.8492 22.5525 5.18634 23.3997 5.78646 24.0244C6.38658 24.6491 7.20051 25 8.0492 25C8.89789 25 9.71183 24.6491 10.3119 24.0244C10.9121 23.3997 11.2492 22.5525 11.2492 21.6691C11.2482 20.7859 10.9108 19.9393 10.3109 19.3148C9.71098 18.6904 8.8976 18.3391 8.0492 18.3381ZM8.0492 23.3345C7.73275 23.3345 7.42341 23.2368 7.16029 23.0538C6.89717 22.8708 6.69209 22.6107 6.57099 22.3064C6.44989 22.0021 6.41821 21.6672 6.47994 21.3441C6.54168 21.0211 6.69407 20.7243 6.91783 20.4914C7.14159 20.2585 7.42669 20.0998 7.73706 20.0356C8.04743 19.9713 8.36913 20.0043 8.66149 20.1304C8.95386 20.2564 9.20374 20.4699 9.37955 20.7438C9.55536 21.0177 9.6492 21.3397 9.6492 21.6691C9.6487 22.1106 9.47997 22.5339 9.18002 22.8461C8.88007 23.1584 8.47339 23.334 8.0492 23.3345Z" fill="#1D1D1D"/>
<path d="M19.2492 18.3381C18.4008 18.3391 17.5874 18.6904 16.9875 19.3148C16.3876 19.9393 16.0502 20.7859 16.0492 21.6691C16.0492 22.5525 16.3863 23.3997 16.9865 24.0244C17.5866 24.6491 18.4005 25 19.2492 25C20.0979 25 20.9118 24.6491 21.5119 24.0244C22.1121 23.3997 22.4492 22.5525 22.4492 21.6691C22.4482 20.7859 22.1108 19.9393 21.5109 19.3148C20.911 18.6904 20.0976 18.3391 19.2492 18.3381ZM19.2492 23.3345C18.9327 23.3345 18.6234 23.2368 18.3603 23.0538C18.0972 22.8708 17.8921 22.6107 17.771 22.3064C17.6499 22.0021 17.6182 21.6672 17.6799 21.3441C17.7417 21.0211 17.8941 20.7243 18.1178 20.4914C18.3416 20.2585 18.6267 20.0998 18.9371 20.0356C19.2474 19.9713 19.5691 20.0043 19.8615 20.1304C20.1539 20.2564 20.4037 20.4699 20.5796 20.7438C20.7554 21.0177 20.8492 21.3397 20.8492 21.6691C20.8487 22.1106 20.68 22.5339 20.38 22.8461C20.0801 23.1584 19.6734 23.334 19.2492 23.3345Z" fill="#1D1D1D"/>
</svg>
