<svg width="28" height="28" viewBox="0 0 28 28" fill="none" xmlns="http://www.w3.org/2000/svg">
<path d="M25 0H3C2.20435 0 1.44129 0.316071 0.87868 0.87868C0.31607 1.44129 0 2.20435 0 3L0 25C0 25.7956 0.31607 26.5587 0.87868 27.1213C1.44129 27.6839 2.20435 28 3 28H11.5781V18.4806H7.64062V14H11.5781V10.585C11.5781 6.70062 13.8906 4.555 17.4325 4.555C19.1288 4.555 20.9025 4.8575 20.9025 4.8575V8.67H18.9481C17.0225 8.67 16.4219 9.865 16.4219 11.0906V14H20.7206L20.0331 18.4806H16.4219V28H25C25.7956 28 26.5587 27.6839 27.1213 27.1213C27.6839 26.5587 28 25.7956 28 25V3C28 2.20435 27.6839 1.44129 27.1213 0.87868C26.5587 0.316071 25.7956 0 25 0V0Z" fill="#1D1D1D"/>
</svg>
