<svg width="61" height="56" viewBox="0 0 61 56" fill="none" xmlns="http://www.w3.org/2000/svg">
<path d="M0 17.8394V0.241727H6.28343C8.5341 0.241727 10.2441 0.656691 11.4135 1.48662C12.5909 2.31655 13.1796 3.52115 13.1796 5.10043C13.1796 6.01094 12.9713 6.78849 12.5549 7.43309C12.1384 8.0777 11.5256 8.55309 10.7167 8.85928C11.6298 9.10101 12.3306 9.55223 12.8192 10.213C13.3077 10.8737 13.552 11.6794 13.552 12.6302C13.552 14.3545 13.0074 15.6518 11.9181 16.522C10.8368 17.3842 9.23092 17.8233 7.1004 17.8394H0ZM4.21699 10.358V14.5761H6.98026C7.74116 14.5761 8.32585 14.4029 8.73433 14.0564C9.14282 13.7019 9.34706 13.2063 9.34706 12.5698C9.34706 11.1033 8.6222 10.366 7.17248 10.358H4.21699ZM4.21699 7.57813H6.41559C7.33668 7.57007 7.99346 7.40086 8.38592 7.0705C8.77838 6.74014 8.97462 6.25266 8.97462 5.60806C8.97462 4.86676 8.76237 4.33496 8.33786 4.01266C7.91336 3.6823 7.22855 3.51712 6.28343 3.51712H4.21699V7.57813Z" fill="black"/>
<path d="M27.4698 10.3822H20.8379V14.5761H28.6712V17.8394H16.6209V0.241727H28.6952V3.51712H20.8379V7.22763H27.4698V10.3822Z" fill="black"/>
<path d="M40.1501 13.162C40.1501 12.5416 39.9298 12.0581 39.4893 11.7117C39.0568 11.3652 38.2919 11.0066 37.1946 10.636C36.0973 10.2653 35.2002 9.90676 34.5034 9.56029C32.2367 8.44029 31.1034 6.9013 31.1034 4.94331C31.1034 3.96835 31.3837 3.11022 31.9443 2.36892C32.513 1.61957 33.314 1.03942 34.3472 0.628489C35.3804 0.209496 36.5418 0 37.8313 0C39.0888 0 40.2141 0.225612 41.2073 0.676835C42.2085 1.12806 42.9854 1.77266 43.5381 2.61065C44.0907 3.44058 44.367 4.39137 44.367 5.46302H40.1621C40.1621 4.7459 39.9418 4.18993 39.5013 3.79511C39.0688 3.40029 38.4801 3.20288 37.7352 3.20288C36.9823 3.20288 36.3856 3.37209 35.9451 3.7105C35.5126 4.04086 35.2963 4.46389 35.2963 4.97957C35.2963 5.43079 35.5366 5.84173 36.0172 6.21237C36.4977 6.57496 37.3427 6.95367 38.5522 7.34849C39.7616 7.73525 40.7548 8.15424 41.5317 8.60547C43.4219 9.7013 44.367 11.2121 44.367 13.1378C44.367 14.6768 43.7904 15.8855 42.637 16.7637C41.4836 17.642 39.9018 18.0812 37.8914 18.0812C36.4737 18.0812 35.1882 17.8273 34.0348 17.3197C32.8895 16.804 32.0244 16.103 31.4398 15.2167C30.8631 14.3223 30.5747 13.295 30.5747 12.1347H34.8037C34.8037 13.0774 35.044 13.7744 35.5246 14.2256C36.0132 14.6688 36.8021 14.8904 37.8914 14.8904C38.5882 14.8904 39.1369 14.7413 39.5373 14.4432C39.9458 14.137 40.1501 13.7099 40.1501 13.162Z" fill="black"/>
<path d="M61 3.51712H55.7498V17.8394H51.5328V3.51712H46.3787V0.241727H61V3.51712Z" fill="black"/>
<path d="M9.18238 32.0872C9.18238 31.4896 8.9421 31.0095 8.46153 30.6469C7.98764 30.2843 7.27012 30.0023 6.30898 29.8009C5.34785 29.5927 4.60029 29.3577 4.06633 29.0958C3.53904 28.8272 3.14524 28.5016 2.88493 28.1188C2.6313 27.7361 2.50448 27.2728 2.50448 26.7289C2.50448 25.8694 2.86157 25.1611 3.57575 24.6037C4.28993 24.0397 5.20434 23.7577 6.31899 23.7577C7.52709 23.7577 8.4949 24.0599 9.22243 24.6642C9.95663 25.2618 10.3237 26.044 10.3237 27.0109H9.12231C9.12231 26.373 8.85533 25.8426 8.32136 25.4196C7.79407 24.9965 7.12662 24.785 6.31899 24.785C5.5314 24.785 4.89731 24.963 4.41674 25.3188C3.94285 25.668 3.7059 26.1246 3.7059 26.6886C3.7059 27.2325 3.9028 27.6555 4.2966 27.9577C4.69708 28.2531 5.42127 28.5251 6.46917 28.7735C7.52375 29.022 8.31135 29.2872 8.83197 29.5692C9.35926 29.8512 9.74972 30.1903 10.0034 30.5865C10.257 30.9826 10.3838 31.4627 10.3838 32.0268C10.3838 32.9467 10.0134 33.6819 9.27249 34.2325C8.53829 34.7831 7.57715 35.0584 6.38908 35.0584C5.12759 35.0584 4.10304 34.7529 3.31544 34.1419C2.53452 33.5241 2.14406 32.7452 2.14406 31.8052H3.34548C3.3922 32.5102 3.68588 33.0608 4.22652 33.457C4.77383 33.8464 5.49469 34.0412 6.38908 34.0412C7.2234 34.0412 7.89753 33.8565 8.41147 33.4872C8.92541 33.1179 9.18238 32.6512 9.18238 32.0872Z" fill="black"/>
<path d="M18.6868 25.8023C19.0806 25.151 19.5846 24.6474 20.1986 24.2915C20.8127 23.9356 21.4835 23.7577 22.211 23.7577C23.3724 23.7577 24.2367 24.0867 24.8041 24.7447C25.3714 25.4028 25.6584 26.3898 25.6651 27.7059V34.857H24.4737V27.6958C24.467 26.7222 24.2601 25.997 23.8529 25.5203C23.4525 25.0436 22.8084 24.8052 21.9207 24.8052C21.1798 24.8052 20.5223 25.0402 19.9483 25.5102C19.381 25.9735 18.9605 26.6013 18.6868 27.3937V34.857H17.4954V19.3865H18.6868V25.8023Z" fill="black"/>
<path d="M34.4987 34.857H33.2973V23.9591H34.4987V34.857ZM33.0871 20.8066C33.0871 20.5783 33.1605 20.387 33.3073 20.2325C33.4542 20.0714 33.6544 19.9908 33.908 19.9908C34.1617 19.9908 34.3619 20.0714 34.5087 20.2325C34.6623 20.387 34.739 20.5783 34.739 20.8066C34.739 21.0349 34.6623 21.2263 34.5087 21.3807C34.3619 21.5352 34.1617 21.6124 33.908 21.6124C33.6544 21.6124 33.4542 21.5352 33.3073 21.3807C33.1605 21.2263 33.0871 21.0349 33.0871 20.8066Z" fill="black"/>
<path d="M47.1769 24.9865C46.9233 24.9395 46.653 24.916 46.366 24.916C45.6184 24.916 44.9843 25.1275 44.4637 25.5505C43.9498 25.9668 43.5827 26.5745 43.3624 27.3735V34.857H42.171V23.9591H43.3424L43.3624 25.6915C43.9965 24.4023 45.0144 23.7577 46.416 23.7577C46.7498 23.7577 47.0134 23.8013 47.207 23.8886L47.1769 24.9865Z" fill="black"/>
<path d="M55.8504 21.1692V23.9591H58.093V24.9462H55.8504V32.2081C55.8504 32.8124 55.9572 33.2623 56.1708 33.5577C56.391 33.8531 56.7548 34.0009 57.2621 34.0009C57.4623 34.0009 57.786 33.9673 58.2332 33.9001L58.2833 34.8872C57.9696 35.0013 57.5424 35.0584 57.0017 35.0584C56.1808 35.0584 55.5834 34.82 55.2096 34.3433C54.8359 33.8599 54.649 33.1515 54.649 32.2181V24.9462H52.6566V23.9591H54.649V21.1692H55.8504Z" fill="black"/>
<path d="M11.2093 48.5427H4.57741V52.7367H12.4107V56H0.360426V38.4023H12.4347V41.6777H4.57741V45.3882H11.2093V48.5427Z" fill="black"/>
<path d="M21.6549 51.2138L25.139 38.4023H29.8486L23.9616 56H19.3482L13.5093 38.4023H18.1828L21.6549 51.2138Z" fill="black"/>
<path d="M42.7211 48.5427H36.0893V52.7367H43.9225V56H31.8723V38.4023H43.9465V41.6777H36.0893V45.3882H42.7211V48.5427Z" fill="black"/>
<path d="M52.8784 49.7876H50.5957V56H46.3787V38.4023H53.2629C55.3373 38.4023 56.9592 38.8656 58.1286 39.7922C59.298 40.7189 59.8827 42.0282 59.8827 43.7203C59.8827 44.945 59.6344 45.9603 59.1378 46.766C58.6492 47.5718 57.8803 48.2245 56.8311 48.724L60.4834 55.8187V56H55.966L52.8784 49.7876ZM50.5957 46.5122H53.2629C54.0638 46.5122 54.6645 46.3027 55.065 45.8837C55.4735 45.4567 55.6777 44.8645 55.6777 44.1071C55.6777 43.3496 55.4735 42.7574 55.065 42.3304C54.6565 41.8953 54.0558 41.6777 53.2629 41.6777H50.5957V46.5122Z" fill="black"/>
</svg>
